<?xml version="1.0" ?><!-- Uploaded to: SVG Repo, www.svgrepo.com, Generator: SVG Repo Mixer Tools -->
<svg width="800px" height="800px" viewBox="0 0 24 24" data-name="016_FOOD" id="_016_FOOD" xmlns="http://www.w3.org/2000/svg"><defs><style>.cls-1{fill:#333;}</style></defs><path class="cls-1" d="M9.48,22a4.48,4.48,0,0,1-4.42-3.83.8.8,0,0,0-.45-.6,4.47,4.47,0,0,1-1.24-7.29.81.81,0,0,0,.26-.6.86.86,0,0,0-.1-.41A4.9,4.9,0,0,1,3,7.05a4.26,4.26,0,0,1,0-.61A5,5,0,0,1,7.21,2.11a5,5,0,0,1,3.52.75,3.83,3.83,0,0,0,3.1.36A6.61,6.61,0,0,1,17,3.17a6.52,6.52,0,0,1,4.86,5.05A6.85,6.85,0,0,1,22,9.5a6.45,6.45,0,0,1-1.73,4.41A5.26,5.26,0,0,1,21,16.59a5.54,5.54,0,0,1-.24,1.6,5.28,5.28,0,0,1-1.63,2.5,1,1,0,1,1-1.3-1.51,3.38,3.38,0,0,0,1-1.56,3.72,3.72,0,0,0,.15-1,3.37,3.37,0,0,0-.81-2.17,1,1,0,0,1-.23-.74,1,1,0,0,1,.37-.68A4.5,4.5,0,0,0,20,9.5a4.58,4.58,0,0,0-.09-.9,4.48,4.48,0,0,0-3.34-3.48,4.67,4.67,0,0,0-2.23,0,5.86,5.86,0,0,1-4.71-.62,3,3,0,0,0-2.11-.44A3,3,0,0,0,5,6.68c0,.12,0,.25,0,.37a3,3,0,0,0,.31,1.32,2.88,2.88,0,0,1,.32,1.31,2.81,2.81,0,0,1-.87,2A2.44,2.44,0,0,0,4,13.5a2.49,2.49,0,0,0,1.45,2.25A2.81,2.81,0,0,1,7,17.88a2.44,2.44,0,0,0,1.24,1.8A2.51,2.51,0,0,0,11,19.47a2.32,2.32,0,0,1,2.67-.07,3.52,3.52,0,0,0,1.26.54,1,1,0,0,1,.78,1.17,1,1,0,0,1-1.18.79,5.47,5.47,0,0,1-2-.86.23.23,0,0,0-.31,0A4.55,4.55,0,0,1,9.48,22Z"/><path class="cls-1" d="M12,17a5,5,0,1,1,5-5A5,5,0,0,1,12,17Zm0-8a3,3,0,1,0,3,3A3,3,0,0,0,12,9Z"/></svg>