<?xml version="1.0" encoding="iso-8859-1"?>
<!-- Uploaded to: SVG Repo, www.svgrepo.com, Generator: SVG Repo Mixer Tools -->
<svg fill="#000000" version="1.1" id="Layer_1" xmlns="http://www.w3.org/2000/svg" xmlns:xlink="http://www.w3.org/1999/xlink" 
	 viewBox="0 0 512 512" xml:space="preserve">
<g>
	<g>
		<path d="M133.615,118.578c-10.588-0.935-27.116,5.648-29.222,27.5c-0.639,6.639,2.005,14.944,5.065,24.556
			c1.759,5.518,3.579,11.222,4.56,16.139c7.389,36.944-4.023,46.157-4.829,46.75c-4.389,2.463-6.111,7.963-3.838,12.509
			c1.662,3.324,5.009,5.241,8.491,5.241c1.422,0,2.87-0.324,4.232-1c2.602-1.305,25.134-14.25,14.537-67.222
			c-1.19-5.944-3.167-12.157-5.083-18.167c-1.907-6-4.523-14.213-4.255-16.991c0.852-8.861,5.259-10.426,8.703-10.426
			c5.194,0.565,9.815-3.407,10.264-8.63C142.694,123.624,138.833,119.032,133.615,118.578z"/>
	</g>
</g>
<g>
	<g>
		<path d="M266.355,118.578c-10.555-0.935-27.116,5.648-29.222,27.5c-0.639,6.639,2.005,14.944,5.065,24.556
			c1.759,5.518,3.579,11.222,4.56,16.139c7.389,36.944-4.023,46.157-4.829,46.75c-4.389,2.463-6.111,7.963-3.838,12.509
			c1.662,3.324,5.009,5.241,8.491,5.241c1.422,0,2.87-0.324,4.232-1c2.602-1.305,25.134-14.25,14.537-67.222
			c-1.19-5.944-3.167-12.157-5.083-18.167c-1.907-6-4.523-14.213-4.255-16.991c0.852-8.861,5.18-10.426,8.703-10.426
			c5.194,0.565,9.815-3.407,10.264-8.63C275.434,123.624,271.573,119.032,266.355,118.578z"/>
	</g>
</g>
<g>
	<g>
		<path d="M200.249,80.689c-1.569-0.176-9.676-0.755-17.398,5.653c-7.097,5.889-11.171,15.424-12.106,28.35
			c-0.56,7.741,1.972,18.322,4.898,30.592c1.792,7.488,3.639,15.229,4.667,22.063c7.875,52.509-4.917,65.99-5.787,66.833
			c-4.009,3-5.019,8.639-2.208,12.852c1.824,2.741,4.833,4.222,7.898,4.222c1.806,0,3.634-0.518,5.25-1.593
			c4.005-2.667,23.472-19.315,13.597-85.129c-1.143-7.63-3.088-15.778-4.972-23.657c-2.241-9.38-4.778-19.981-4.426-24.796
			c0.884-12.25,5.231-16.528,8.361-16.528c0.023,0,0.042,0,0.06,0c5.167,0,9.903-3.148,10.504-8.352
			C209.184,85.995,205.453,81.282,200.249,80.689z"/>
	</g>
</g>
<g>
	<g>
		<path d="M510.822,218.244c-2.514-4.602-8.273-6.25-12.875-3.741l-187.49,103.12H9.481c-3.046,0-5.907,1.463-7.69,3.935
			c-1.782,2.472-2.269,5.657-1.306,8.546l18.963,56.889c1.292,3.87,4.912,6.482,8.995,6.482h341.332
			c4.083,0,7.704-2.611,8.995-6.482l18.963-56.889c0.963-2.889,0.477-6.074-1.306-8.546c-1.782-2.472-4.643-3.935-7.69-3.935
			h-38.942l157.289-86.509C511.674,228.596,513.35,222.827,510.822,218.244z M375.587,336.586l-12.643,37.926H35.278l-12.644-37.926
			H375.587z"/>
	</g>
</g>
<g>
	<g>
		<rect y="412.444" width="398.221" height="18.963"/>
	</g>
</g>
</svg>